<?xml version="1.0" encoding="UTF-8" standalone="no"?>
<!-- Created with Inkscape (http://www.inkscape.org/) -->

<svg
   width="210mm"
   height="297mm"
   viewBox="0 0 210 297"
   version="1.1"
   id="svg1"
   inkscape:version="1.3 (0e150ed6c4, 2023-07-21)"
   sodipodi:docname="2mm_bottom.svg"
   xmlns:inkscape="http://www.inkscape.org/namespaces/inkscape"
   xmlns:sodipodi="http://sodipodi.sourceforge.net/DTD/sodipodi-0.dtd"
   xmlns="http://www.w3.org/2000/svg"
   xmlns:svg="http://www.w3.org/2000/svg">
  <sodipodi:namedview
     id="namedview1"
     pagecolor="#505050"
     bordercolor="#eeeeee"
     borderopacity="1"
     inkscape:showpageshadow="0"
     inkscape:pageopacity="0"
     inkscape:pagecheckerboard="0"
     inkscape:deskcolor="#d1d1d1"
     inkscape:document-units="mm"
     inkscape:zoom="1.6587682"
     inkscape:cx="403.91417"
     inkscape:cy="381.90989"
     inkscape:window-width="1920"
     inkscape:window-height="1162"
     inkscape:window-x="0"
     inkscape:window-y="18"
     inkscape:window-maximized="1"
     inkscape:current-layer="layer1" />
  <defs
     id="defs1" />
  <g
     inkscape:label="Layer 1"
     inkscape:groupmode="layer"
     id="layer1">
    <g
       id="g3"
       transform="translate(-47.095833,0.529167)">
      <path
         d="m 155.54906,69.538145 -1.526,-0.197 h -21.939 l -1.527,0.197 -1.473,0.607 -1.262,0.973 -0.934,1.223 -1.835,3.177 -9.135,15.823 -0.592,1.421 -0.212,1.579 0.212,1.579 0.592,1.421 3.135,5.430995 4.699,8.13801 3.136,5.43099 0.934,1.223 1.262,0.973 1.473,0.607 1.527,0.197 h 21.939 l 1.526,-0.197 1.474,-0.607 1.262,-0.973 0.934,-1.223 3.136,-5.43099 6,-10.392 1.834,-3.177005 0.592,-1.421 0.212,-1.579 -0.212,-1.579 -0.592,-1.421 -9.136,-15.823 -1.834,-3.177 -0.934,-1.223 -1.262,-0.973 -1.474,-0.607"
         class="s5"
         id="path1-0"
         style="fill:none;stroke:#000000;stroke-width:0.040623;stroke-linecap:round;stroke-linejoin:round" />
      <path
         d="m 155.65606,73.904145 0.653,0.377 -1.364,2.362 -1.636,2.835 -1.142,-0.66 -1.369,-0.79 1.363,-2.362 0.176,-0.305 1.461,-2.53 1.141,0.659 0.717,0.414"
         class="s5"
         id="path2-9"
         style="fill:none;stroke:#000000;stroke-width:0.040623;stroke-linecap:round;stroke-linejoin:round" />
      <path
         d="m 132.30906,72.831145 1.364,2.362 1.636,2.835 -1.142,0.659 -1.369,0.791 -1.364,-2.362 -1.636,-2.835 1.141,-0.659 1.37,-0.791"
         class="s5"
         id="path3-3"
         style="fill:none;stroke:#000000;stroke-width:0.040623;stroke-linecap:round;stroke-linejoin:round" />
      <path
         d="m 161.05306,94.473145 v -1.582 h 2.728 3.272 v 1.318 1.582 h -2.727 -3.273 v -1.318"
         class="s5"
         id="path4-6"
         style="fill:none;stroke:#000000;stroke-width:0.040623;stroke-linecap:round;stroke-linejoin:round" />
      <path
         d="m 125.05306,92.891145 v 1.318 1.582 h -2.727 -3.273 v -1.318 -1.582 h 2.728 3.272"
         class="s5"
         id="path5-0"
         style="fill:none;stroke:#000000;stroke-width:0.040623;stroke-linecap:round;stroke-linejoin:round" />
      <path
         d="m 135.30906,110.65415 -1.364,2.36199 -0.176,0.30501 -1.46,2.53 -1.142,-0.659 -0.716,-0.41401 -0.653,-0.37699 1.363,-2.36201 1.637,-2.835 1.141,0.66 1.37,0.79001"
         class="s5"
         id="path6-6"
         style="fill:none;stroke:#000000;stroke-width:0.040623;stroke-linecap:round;stroke-linejoin:round" />
      <path
         d="m 153.30906,109.20414 1.364,2.36201 1.636,2.835 -1.142,0.659 -1.369,0.791 -1.364,-2.36201 -1.636,-2.83499 1.141,-0.65901 1.37,-0.791"
         class="s5"
         id="path7-2"
         style="fill:none;stroke:#000000;stroke-width:0.040623;stroke-linecap:round;stroke-linejoin:round" />
    </g>
  </g>
</svg>
